<mxfile host="app.diagrams.net" agent="Mozilla/5.0 (Windows NT 10.0; Win64; x64) AppleWebKit/537.36 (KHTML, like Gecko) Chrome/140.0.0.0 Safari/537.36" version="28.0.7">
  <diagram name="第 1 页" id="uVa8g3Y1Gm0LPV5mCfQM">
    <mxGraphModel dx="1753" dy="791" grid="1" gridSize="10" guides="1" tooltips="1" connect="1" arrows="1" fold="1" page="1" pageScale="1" pageWidth="827" pageHeight="1169" math="0" shadow="0">
      <root>
        <mxCell id="0" />
        <mxCell id="1" parent="0" />
        <mxCell id="1BMH84HQKJaZ3puQxOya-1" value="Class&amp;nbsp;CCEIDataCollectHandler" style="swimlane;fontStyle=1;align=center;verticalAlign=top;childLayout=stackLayout;horizontal=1;startSize=26;horizontalStack=0;resizeParent=1;resizeParentMax=0;resizeLast=0;collapsible=1;marginBottom=0;whiteSpace=wrap;html=1;" parent="1" vertex="1">
          <mxGeometry x="1250" y="570" width="190" height="190" as="geometry" />
        </mxCell>
        <mxCell id="1BMH84HQKJaZ3puQxOya-2" value="&lt;span style=&quot;text-align: center;&quot;&gt;CCEIDataCollectHelper* ptr&lt;br&gt;构造函数就调用ptr-&amp;gt;start，将ptr放到movetoThread了&lt;/span&gt;" style="text;strokeColor=none;fillColor=none;align=left;verticalAlign=top;spacingLeft=4;spacingRight=4;overflow=hidden;rotatable=0;points=[[0,0.5],[1,0.5]];portConstraint=eastwest;whiteSpace=wrap;html=1;" parent="1BMH84HQKJaZ3puQxOya-1" vertex="1">
          <mxGeometry y="26" width="190" height="54" as="geometry" />
        </mxCell>
        <mxCell id="1BMH84HQKJaZ3puQxOya-3" value="" style="line;strokeWidth=1;fillColor=none;align=left;verticalAlign=middle;spacingTop=-1;spacingLeft=3;spacingRight=3;rotatable=0;labelPosition=right;points=[];portConstraint=eastwest;strokeColor=inherit;" parent="1BMH84HQKJaZ3puQxOya-1" vertex="1">
          <mxGeometry y="80" width="190" height="8" as="geometry" />
        </mxCell>
        <mxCell id="1BMH84HQKJaZ3puQxOya-4" value="接收到信号，调用ptr-&amp;gt;asyncInvokeMethod,将ptr里面的函数放队列，然后等待timerout，执行&lt;br&gt;onCollectVideoFinish(实际调用，ptr-&amp;gt;saveVideo)" style="text;strokeColor=none;fillColor=none;align=left;verticalAlign=top;spacingLeft=4;spacingRight=4;overflow=hidden;rotatable=0;points=[[0,0.5],[1,0.5]];portConstraint=eastwest;whiteSpace=wrap;html=1;" parent="1BMH84HQKJaZ3puQxOya-1" vertex="1">
          <mxGeometry y="88" width="190" height="102" as="geometry" />
        </mxCell>
        <mxCell id="1BMH84HQKJaZ3puQxOya-5" value="Class&amp;nbsp;CCEIDataCollectHelper" style="swimlane;fontStyle=1;align=center;verticalAlign=top;childLayout=stackLayout;horizontal=1;startSize=26;horizontalStack=0;resizeParent=1;resizeParentMax=0;resizeLast=0;collapsible=1;marginBottom=0;whiteSpace=wrap;html=1;" parent="1" vertex="1">
          <mxGeometry x="1509" y="570" width="190" height="140" as="geometry" />
        </mxCell>
        <mxCell id="1BMH84HQKJaZ3puQxOya-6" value="+ field: type" style="text;strokeColor=none;fillColor=none;align=left;verticalAlign=top;spacingLeft=4;spacingRight=4;overflow=hidden;rotatable=0;points=[[0,0.5],[1,0.5]];portConstraint=eastwest;whiteSpace=wrap;html=1;" parent="1BMH84HQKJaZ3puQxOya-5" vertex="1">
          <mxGeometry y="26" width="190" height="26" as="geometry" />
        </mxCell>
        <mxCell id="1BMH84HQKJaZ3puQxOya-7" value="" style="line;strokeWidth=1;fillColor=none;align=left;verticalAlign=middle;spacingTop=-1;spacingLeft=3;spacingRight=3;rotatable=0;labelPosition=right;points=[];portConstraint=eastwest;strokeColor=inherit;" parent="1BMH84HQKJaZ3puQxOya-5" vertex="1">
          <mxGeometry y="52" width="190" height="8" as="geometry" />
        </mxCell>
        <mxCell id="1BMH84HQKJaZ3puQxOya-8" value="执行具体的保存图像测量等操作在线程操作；" style="text;strokeColor=none;fillColor=none;align=left;verticalAlign=top;spacingLeft=4;spacingRight=4;overflow=hidden;rotatable=0;points=[[0,0.5],[1,0.5]];portConstraint=eastwest;whiteSpace=wrap;html=1;" parent="1BMH84HQKJaZ3puQxOya-5" vertex="1">
          <mxGeometry y="60" width="190" height="50" as="geometry" />
        </mxCell>
        <mxCell id="1BMH84HQKJaZ3puQxOya-9" value="父类：ActiveObject" style="text;strokeColor=none;fillColor=none;align=left;verticalAlign=top;spacingLeft=4;spacingRight=4;overflow=hidden;rotatable=0;points=[[0,0.5],[1,0.5]];portConstraint=eastwest;whiteSpace=wrap;html=1;" parent="1BMH84HQKJaZ3puQxOya-5" vertex="1">
          <mxGeometry y="110" width="190" height="30" as="geometry" />
        </mxCell>
        <mxCell id="1BMH84HQKJaZ3puQxOya-10" value="Class&amp;nbsp;&lt;span style=&quot;font-weight: 400; text-align: left;&quot;&gt;ActiveObject&lt;/span&gt;" style="swimlane;fontStyle=1;align=center;verticalAlign=top;childLayout=stackLayout;horizontal=1;startSize=26;horizontalStack=0;resizeParent=1;resizeParentMax=0;resizeLast=0;collapsible=1;marginBottom=0;whiteSpace=wrap;html=1;" parent="1" vertex="1">
          <mxGeometry x="1750" y="430" width="230" height="160" as="geometry" />
        </mxCell>
        <mxCell id="1BMH84HQKJaZ3puQxOya-11" value="+ field: type" style="text;strokeColor=none;fillColor=none;align=left;verticalAlign=top;spacingLeft=4;spacingRight=4;overflow=hidden;rotatable=0;points=[[0,0.5],[1,0.5]];portConstraint=eastwest;whiteSpace=wrap;html=1;" parent="1BMH84HQKJaZ3puQxOya-10" vertex="1">
          <mxGeometry y="26" width="230" height="26" as="geometry" />
        </mxCell>
        <mxCell id="1BMH84HQKJaZ3puQxOya-12" value="" style="line;strokeWidth=1;fillColor=none;align=left;verticalAlign=middle;spacingTop=-1;spacingLeft=3;spacingRight=3;rotatable=0;labelPosition=right;points=[];portConstraint=eastwest;strokeColor=inherit;" parent="1BMH84HQKJaZ3puQxOya-10" vertex="1">
          <mxGeometry y="52" width="230" height="8" as="geometry" />
        </mxCell>
        <mxCell id="1BMH84HQKJaZ3puQxOya-13" value="线程，在start里面movetoTHread别的地方通过asyncInvokeMethod构建一个QMetaObject::invokeMethod，执行异步操作(也是本质)" style="text;strokeColor=none;fillColor=none;align=left;verticalAlign=top;spacingLeft=4;spacingRight=4;overflow=hidden;rotatable=0;points=[[0,0.5],[1,0.5]];portConstraint=eastwest;whiteSpace=wrap;html=1;" parent="1BMH84HQKJaZ3puQxOya-10" vertex="1">
          <mxGeometry y="60" width="230" height="70" as="geometry" />
        </mxCell>
        <mxCell id="1BMH84HQKJaZ3puQxOya-14" value="父类：QObject" style="text;strokeColor=none;fillColor=none;align=left;verticalAlign=top;spacingLeft=4;spacingRight=4;overflow=hidden;rotatable=0;points=[[0,0.5],[1,0.5]];portConstraint=eastwest;whiteSpace=wrap;html=1;" parent="1BMH84HQKJaZ3puQxOya-10" vertex="1">
          <mxGeometry y="130" width="230" height="30" as="geometry" />
        </mxCell>
        <mxCell id="1BMH84HQKJaZ3puQxOya-15" value="Class&amp;nbsp;UltraDataCollectTool&lt;span style=&quot;color: rgba(0, 0, 0, 0); font-family: monospace; font-size: 0px; font-weight: 400; text-align: start; text-wrap-mode: nowrap;&quot;&gt;%3CmxGraphModel%3E%3Croot%3E%3CmxCell%20id%3D%220%22%2F%3E%3CmxCell%20id%3D%221%22%20parent%3D%220%22%2F%3E%3CmxCell%20id%3D%222%22%20value%3D%22Class%26amp%3Bnbsp%3BCCEIDataCollectHandler%22%20style%3D%22swimlane%3BfontStyle%3D1%3Balign%3Dcenter%3BverticalAlign%3Dtop%3BchildLayout%3DstackLayout%3Bhorizontal%3D1%3BstartSize%3D26%3BhorizontalStack%3D0%3BresizeParent%3D1%3BresizeParentMax%3D0%3BresizeLast%3D0%3Bcollapsible%3D1%3BmarginBottom%3D0%3BwhiteSpace%3Dwrap%3Bhtml%3D1%3B%22%20vertex%3D%221%22%20parent%3D%221%22%3E%3CmxGeometry%20x%3D%2260%22%20y%3D%2240%22%20width%3D%22190%22%20height%3D%22170%22%20as%3D%22geometry%22%2F%3E%3C%2FmxCell%3E%3CmxCell%20id%3D%223%22%20value%3D%22%26lt%3Bspan%20style%3D%26quot%3Btext-align%3A%20center%3B%26quot%3B%26gt%3BCCEIDataCollectHelper*%20ptr%26lt%3Bbr%26gt%3B%E6%9E%84%E9%80%A0%E5%87%BD%E6%95%B0%E5%B0%B1%E8%B0%83%E7%94%A8ptr-%26amp%3Bgt%3Bstart%EF%BC%8C%E5%B0%86ptr%E6%94%BE%E5%88%B0movetoThread%E4%BA%86%26lt%3B%2Fspan%26gt%3B%22%20style%3D%22text%3BstrokeColor%3Dnone%3BfillColor%3Dnone%3Balign%3Dleft%3BverticalAlign%3Dtop%3BspacingLeft%3D4%3BspacingRight%3D4%3Boverflow%3Dhidden%3Brotatable%3D0%3Bpoints%3D%5B%5B0%2C0.5%5D%2C%5B1%2C0.5%5D%5D%3BportConstraint%3Deastwest%3BwhiteSpace%3Dwrap%3Bhtml%3D1%3B%22%20vertex%3D%221%22%20parent%3D%222%22%3E%3CmxGeometry%20y%3D%2226%22%20width%3D%22190%22%20height%3D%2254%22%20as%3D%22geometry%22%2F%3E%3C%2FmxCell%3E%3CmxCell%20id%3D%224%22%20value%3D%22%22%20style%3D%22line%3BstrokeWidth%3D1%3BfillColor%3Dnone%3Balign%3Dleft%3BverticalAlign%3Dmiddle%3BspacingTop%3D-1%3BspacingLeft%3D3%3BspacingRight%3D3%3Brotatable%3D0%3BlabelPosition%3Dright%3Bpoints%3D%5B%5D%3BportConstraint%3Deastwest%3BstrokeColor%3Dinherit%3B%22%20vertex%3D%221%22%20parent%3D%222%22%3E%3CmxGeometry%20y%3D%2280%22%20width%3D%22190%22%20height%3D%228%22%20as%3D%22geometry%22%2F%3E%3C%2FmxCell%3E%3CmxCell%20id%3D%225%22%20value%3D%22%E6%8E%A5%E6%94%B6%E5%88%B0%E4%BF%A1%E5%8F%B7%EF%BC%8C%E8%B0%83%E7%94%A8ptr-%26amp%3Bgt%3BasyncInvokeMethod%2C%E5%B0%86ptr%E9%87%8C%E9%9D%A2%E7%9A%84%E5%87%BD%E6%95%B0%E6%94%BE%E9%98%9F%E5%88%97%EF%BC%8C%E7%84%B6%E5%90%8E%E7%AD%89%E5%BE%85timerout%EF%BC%8C%E6%89%A7%E8%A1%8C%26lt%3Bbr%26gt%3BonCollectImageFinish%22%20style%3D%22text%3BstrokeColor%3Dnone%3BfillColor%3Dnone%3Balign%3Dleft%3BverticalAlign%3Dtop%3BspacingLeft%3D4%3BspacingRight%3D4%3Boverflow%3Dhidden%3Brotatable%3D0%3Bpoints%3D%5B%5B0%2C0.5%5D%2C%5B1%2C0.5%5D%5D%3BportConstraint%3Deastwest%3BwhiteSpace%3Dwrap%3Bhtml%3D1%3B%22%20vertex%3D%221%22%20parent%3D%222%22%3E%3CmxGeometry%20y%3D%2288%22%20width%3D%22190%22%20height%3D%2282%22%20as%3D%22geometry%22%2F%3E%3C%2FmxCell%3E%3C%2Froot%3E%3C%2FmxGraphModel%3E&lt;/span&gt;" style="swimlane;fontStyle=1;align=center;verticalAlign=top;childLayout=stackLayout;horizontal=1;startSize=26;horizontalStack=0;resizeParent=1;resizeParentMax=0;resizeLast=0;collapsible=1;marginBottom=0;whiteSpace=wrap;html=1;" parent="1" vertex="1">
          <mxGeometry x="360" y="350" width="190" height="160" as="geometry" />
        </mxCell>
        <mxCell id="1BMH84HQKJaZ3puQxOya-16" value="+ field: type" style="text;strokeColor=none;fillColor=none;align=left;verticalAlign=top;spacingLeft=4;spacingRight=4;overflow=hidden;rotatable=0;points=[[0,0.5],[1,0.5]];portConstraint=eastwest;whiteSpace=wrap;html=1;" parent="1BMH84HQKJaZ3puQxOya-15" vertex="1">
          <mxGeometry y="26" width="190" height="24" as="geometry" />
        </mxCell>
        <mxCell id="1BMH84HQKJaZ3puQxOya-17" value="" style="line;strokeWidth=1;fillColor=none;align=left;verticalAlign=middle;spacingTop=-1;spacingLeft=3;spacingRight=3;rotatable=0;labelPosition=right;points=[];portConstraint=eastwest;strokeColor=inherit;" parent="1BMH84HQKJaZ3puQxOya-15" vertex="1">
          <mxGeometry y="50" width="190" height="8" as="geometry" />
        </mxCell>
        <mxCell id="1BMH84HQKJaZ3puQxOya-18" value="构建信号，&lt;br&gt;DataCollectToolInterface&lt;div&gt;调用(emit videoTaskResult等）&lt;br&gt;和&lt;div&gt;&lt;span style=&quot;text-align: center;&quot;&gt;CCEIDataCollectHelper&lt;br&gt;&lt;div style=&quot;text-align: left;&quot;&gt;&lt;span style=&quot;background-color: transparent; color: light-dark(rgb(0, 0, 0), rgb(255, 255, 255));&quot;&gt;调用(&lt;/span&gt;&lt;span style=&quot;background-color: transparent; text-align: left;&quot;&gt;onCollectVideoFinish等&lt;font color=&quot;rgba(0, 0, 0, 0)&quot;&gt;等&lt;/font&gt;&lt;/span&gt;&lt;span style=&quot;background-color: transparent; color: light-dark(rgb(0, 0, 0), rgb(255, 255, 255));&quot;&gt;)&lt;/span&gt;&lt;/div&gt;&lt;/span&gt;&lt;/div&gt;&lt;/div&gt;" style="text;strokeColor=none;fillColor=none;align=left;verticalAlign=top;spacingLeft=4;spacingRight=4;overflow=hidden;rotatable=0;points=[[0,0.5],[1,0.5]];portConstraint=eastwest;whiteSpace=wrap;html=1;" parent="1BMH84HQKJaZ3puQxOya-15" vertex="1">
          <mxGeometry y="58" width="190" height="102" as="geometry" />
        </mxCell>
        <mxCell id="1BMH84HQKJaZ3puQxOya-19" value="Class&amp;nbsp;DataCollectToolInterface&lt;span style=&quot;color: rgba(0, 0, 0, 0); font-family: monospace; font-size: 0px; font-weight: 400; text-align: start; text-wrap-mode: nowrap;&quot;&gt;%3CmxGraphModel%3E%3Croot%3E%3CmxCell%20id%3D%220%22%2F%3E%3CmxCell%20id%3D%221%22%20parent%3D%220%22%2F%3E%3CmxCell%20id%3D%222%22%20value%3D%22Class%26amp%3Bnbsp%3BCCEIDataCollectHandler%22%20style%3D%22swimlane%3BfontStyle%3D1%3Balign%3Dcenter%3BverticalAlign%3Dtop%3BchildLayout%3DstackLayout%3Bhorizontal%3D1%3BstartSize%3D26%3BhorizontalStack%3D0%3BresizeParent%3D1%3BresizeParentMax%3D0%3BresizeLast%3D0%3Bcollapsible%3D1%3BmarginBottom%3D0%3BwhiteSpace%3Dwrap%3Bhtml%3D1%3B%22%20vertex%3D%221%22%20parent%3D%221%22%3E%3CmxGeometry%20x%3D%2260%22%20y%3D%2240%22%20width%3D%22190%22%20height%3D%22170%22%20as%3D%22geometry%22%2F%3E%3C%2FmxCell%3E%3CmxCell%20id%3D%223%22%20value%3D%22%26lt%3Bspan%20style%3D%26quot%3Btext-align%3A%20center%3B%26quot%3B%26gt%3BCCEIDataCollectHelper*%20ptr%26lt%3Bbr%26gt%3B%E6%9E%84%E9%80%A0%E5%87%BD%E6%95%B0%E5%B0%B1%E8%B0%83%E7%94%A8ptr-%26amp%3Bgt%3Bstart%EF%BC%8C%E5%B0%86ptr%E6%94%BE%E5%88%B0movetoThread%E4%BA%86%26lt%3B%2Fspan%26gt%3B%22%20style%3D%22text%3BstrokeColor%3Dnone%3BfillColor%3Dnone%3Balign%3Dleft%3BverticalAlign%3Dtop%3BspacingLeft%3D4%3BspacingRight%3D4%3Boverflow%3Dhidden%3Brotatable%3D0%3Bpoints%3D%5B%5B0%2C0.5%5D%2C%5B1%2C0.5%5D%5D%3BportConstraint%3Deastwest%3BwhiteSpace%3Dwrap%3Bhtml%3D1%3B%22%20vertex%3D%221%22%20parent%3D%222%22%3E%3CmxGeometry%20y%3D%2226%22%20width%3D%22190%22%20height%3D%2254%22%20as%3D%22geometry%22%2F%3E%3C%2FmxCell%3E%3CmxCell%20id%3D%224%22%20value%3D%22%22%20style%3D%22line%3BstrokeWidth%3D1%3BfillColor%3Dnone%3Balign%3Dleft%3BverticalAlign%3Dmiddle%3BspacingTop%3D-1%3BspacingLeft%3D3%3BspacingRight%3D3%3Brotatable%3D0%3BlabelPosition%3Dright%3Bpoints%3D%5B%5D%3BportConstraint%3Deastwest%3BstrokeColor%3Dinherit%3B%22%20vertex%3D%221%22%20parent%3D%222%22%3E%3CmxGeometry%20y%3D%2280%22%20width%3D%22190%22%20height%3D%228%22%20as%3D%22geometry%22%2F%3E%3C%2FmxCell%3E%3CmxCell%20id%3D%225%22%20value%3D%22%E6%8E%A5%E6%94%B6%E5%88%B0%E4%BF%A1%E5%8F%B7%EF%BC%8C%E8%B0%83%E7%94%A8ptr-%26amp%3Bgt%3BasyncInvokeMethod%2C%E5%B0%86ptr%E9%87%8C%E9%9D%A2%E7%9A%84%E5%87%BD%E6%95%B0%E6%94%BE%E9%98%9F%E5%88%97%EF%BC%8C%E7%84%B6%E5%90%8E%E7%AD%89%E5%BE%85timerout%EF%BC%8C%E6%89%A7%E8%A1%8C%26lt%3Bbr%26gt%3BonCollectImageFinish%22%20style%3D%22text%3BstrokeColor%3Dnone%3BfillColor%3Dnone%3Balign%3Dleft%3BverticalAlign%3Dtop%3BspacingLeft%3D4%3BspacingRight%3D4%3Boverflow%3Dhidden%3Brotatable%3D0%3Bpoints%3D%5B%5B0%2C0.5%5D%2C%5B1%2C0.5%5D%5D%3BportConstraint%3Deastwest%3BwhiteSpace%3Dwrap%3Bhtml%3D1%3B%22%20vertex%3D%221%22%20parent%3D%222%22%3E%3CmxGeometry%20y%3D%2288%22%20width%3D%22190%22%20height%3D%2282%22%20as%3D%22geometry%22%2F%3E%3C%2FmxCell%3E%3C%2Froot%3E%3C%2FmxGraphModel%3E&lt;/span&gt;" style="swimlane;fontStyle=1;align=center;verticalAlign=top;childLayout=stackLayout;horizontal=1;startSize=26;horizontalStack=0;resizeParent=1;resizeParentMax=0;resizeLast=0;collapsible=1;marginBottom=0;whiteSpace=wrap;html=1;" parent="1" vertex="1">
          <mxGeometry x="360" y="540" width="190" height="130" as="geometry" />
        </mxCell>
        <mxCell id="1BMH84HQKJaZ3puQxOya-20" value="+ field: type" style="text;strokeColor=none;fillColor=none;align=left;verticalAlign=top;spacingLeft=4;spacingRight=4;overflow=hidden;rotatable=0;points=[[0,0.5],[1,0.5]];portConstraint=eastwest;whiteSpace=wrap;html=1;" parent="1BMH84HQKJaZ3puQxOya-19" vertex="1">
          <mxGeometry y="26" width="190" height="24" as="geometry" />
        </mxCell>
        <mxCell id="1BMH84HQKJaZ3puQxOya-21" value="" style="line;strokeWidth=1;fillColor=none;align=left;verticalAlign=middle;spacingTop=-1;spacingLeft=3;spacingRight=3;rotatable=0;labelPosition=right;points=[];portConstraint=eastwest;strokeColor=inherit;" parent="1BMH84HQKJaZ3puQxOya-19" vertex="1">
          <mxGeometry y="50" width="190" height="8" as="geometry" />
        </mxCell>
        <mxCell id="1BMH84HQKJaZ3puQxOya-22" value="构建信号，&lt;br&gt;DataCollectToolInterface&lt;br&gt;和&lt;div&gt;&lt;span style=&quot;text-align: center;&quot;&gt;CCEIDataCollectHelper&lt;/span&gt;&lt;/div&gt;" style="text;strokeColor=none;fillColor=none;align=left;verticalAlign=top;spacingLeft=4;spacingRight=4;overflow=hidden;rotatable=0;points=[[0,0.5],[1,0.5]];portConstraint=eastwest;whiteSpace=wrap;html=1;" parent="1BMH84HQKJaZ3puQxOya-19" vertex="1">
          <mxGeometry y="58" width="190" height="72" as="geometry" />
        </mxCell>
        <mxCell id="1BMH84HQKJaZ3puQxOya-23" value="Class&amp;nbsp;DataCollectToolInterfaceProxy" style="swimlane;fontStyle=1;align=center;verticalAlign=top;childLayout=stackLayout;horizontal=1;startSize=26;horizontalStack=0;resizeParent=1;resizeParentMax=0;resizeLast=0;collapsible=1;marginBottom=0;whiteSpace=wrap;html=1;" parent="1" vertex="1">
          <mxGeometry x="290" y="710" width="220" height="164" as="geometry" />
        </mxCell>
        <mxCell id="1BMH84HQKJaZ3puQxOya-24" value="+ field: type" style="text;strokeColor=none;fillColor=none;align=left;verticalAlign=top;spacingLeft=4;spacingRight=4;overflow=hidden;rotatable=0;points=[[0,0.5],[1,0.5]];portConstraint=eastwest;whiteSpace=wrap;html=1;" parent="1BMH84HQKJaZ3puQxOya-23" vertex="1">
          <mxGeometry y="26" width="220" height="26" as="geometry" />
        </mxCell>
        <mxCell id="1BMH84HQKJaZ3puQxOya-25" value="" style="line;strokeWidth=1;fillColor=none;align=left;verticalAlign=middle;spacingTop=-1;spacingLeft=3;spacingRight=3;rotatable=0;labelPosition=right;points=[];portConstraint=eastwest;strokeColor=inherit;" parent="1BMH84HQKJaZ3puQxOya-23" vertex="1">
          <mxGeometry y="52" width="220" height="8" as="geometry" />
        </mxCell>
        <mxCell id="1BMH84HQKJaZ3puQxOya-26" value="父类:&lt;span style=&quot;font-weight: 700; text-align: center;&quot;&gt;DataCollectToolInterface&lt;/span&gt;" style="text;strokeColor=none;fillColor=none;align=left;verticalAlign=top;spacingLeft=4;spacingRight=4;overflow=hidden;rotatable=0;points=[[0,0.5],[1,0.5]];portConstraint=eastwest;whiteSpace=wrap;html=1;" parent="1BMH84HQKJaZ3puQxOya-23" vertex="1">
          <mxGeometry y="60" width="220" height="26" as="geometry" />
        </mxCell>
        <mxCell id="1BMH84HQKJaZ3puQxOya-27" value="+ method(type): type" style="text;strokeColor=none;fillColor=none;align=left;verticalAlign=top;spacingLeft=4;spacingRight=4;overflow=hidden;rotatable=0;points=[[0,0.5],[1,0.5]];portConstraint=eastwest;whiteSpace=wrap;html=1;" parent="1BMH84HQKJaZ3puQxOya-23" vertex="1">
          <mxGeometry y="86" width="220" height="26" as="geometry" />
        </mxCell>
        <mxCell id="1BMH84HQKJaZ3puQxOya-28" style="text;strokeColor=none;fillColor=none;align=left;verticalAlign=top;spacingLeft=4;spacingRight=4;overflow=hidden;rotatable=0;points=[[0,0.5],[1,0.5]];portConstraint=eastwest;whiteSpace=wrap;html=1;" parent="1BMH84HQKJaZ3puQxOya-23" vertex="1">
          <mxGeometry y="112" width="220" height="26" as="geometry" />
        </mxCell>
        <mxCell id="1BMH84HQKJaZ3puQxOya-29" style="text;strokeColor=none;fillColor=none;align=left;verticalAlign=top;spacingLeft=4;spacingRight=4;overflow=hidden;rotatable=0;points=[[0,0.5],[1,0.5]];portConstraint=eastwest;whiteSpace=wrap;html=1;" parent="1BMH84HQKJaZ3puQxOya-23" vertex="1">
          <mxGeometry y="138" width="220" height="26" as="geometry" />
        </mxCell>
        <mxCell id="1BMH84HQKJaZ3puQxOya-30" value="" style="endArrow=classic;html=1;rounded=0;entryX=0.045;entryY=0;entryDx=0;entryDy=0;entryPerimeter=0;exitX=-0.004;exitY=0.115;exitDx=0;exitDy=0;exitPerimeter=0;" parent="1" source="1BMH84HQKJaZ3puQxOya-19" target="1BMH84HQKJaZ3puQxOya-23" edge="1">
          <mxGeometry width="50" height="50" relative="1" as="geometry">
            <mxPoint x="320" y="660" as="sourcePoint" />
            <mxPoint x="370" y="610" as="targetPoint" />
          </mxGeometry>
        </mxCell>
        <mxCell id="1BMH84HQKJaZ3puQxOya-31" value="子类" style="edgeLabel;html=1;align=center;verticalAlign=middle;resizable=0;points=[];" parent="1BMH84HQKJaZ3puQxOya-30" vertex="1" connectable="0">
          <mxGeometry x="-0.4458" y="-1" relative="1" as="geometry">
            <mxPoint as="offset" />
          </mxGeometry>
        </mxCell>
        <mxCell id="1BMH84HQKJaZ3puQxOya-32" style="edgeStyle=orthogonalEdgeStyle;rounded=0;orthogonalLoop=1;jettySize=auto;html=1;entryX=0.5;entryY=1;entryDx=0;entryDy=0;" parent="1" source="1BMH84HQKJaZ3puQxOya-33" target="1BMH84HQKJaZ3puQxOya-48" edge="1">
          <mxGeometry relative="1" as="geometry" />
        </mxCell>
        <mxCell id="1BMH84HQKJaZ3puQxOya-33" value="connect(imgFileSaver, &amp;amp;&lt;font style=&quot;color: light-dark(rgb(255, 0, 0), rgb(255, 0, 0));&quot;&gt;ImgFileSaveStrategy::saveImgfinishSignal,&lt;/font&gt;&lt;span style=&quot;background-color: transparent; color: light-dark(rgb(0, 0, 0), rgb(255, 255, 255));&quot;&gt;this, &amp;amp;PatientManager::&lt;/span&gt;&lt;span style=&quot;background-color: transparent;&quot;&gt;&lt;font style=&quot;color: light-dark(rgb(255, 0, 0), rgb(255, 255, 255));&quot;&gt;saveImgfinishSignal&lt;/font&gt;&lt;/span&gt;&lt;span style=&quot;background-color: transparent; color: light-dark(rgb(0, 0, 0), rgb(255, 255, 255));&quot;&gt;, Qt::UniqueConnection);&lt;/span&gt;" style="whiteSpace=wrap;html=1;" parent="1" vertex="1">
          <mxGeometry x="1300" y="1460" width="730" height="60" as="geometry" />
        </mxCell>
        <mxCell id="1BMH84HQKJaZ3puQxOya-34" style="edgeStyle=orthogonalEdgeStyle;rounded=0;orthogonalLoop=1;jettySize=auto;html=1;" parent="1" source="1BMH84HQKJaZ3puQxOya-39" target="1BMH84HQKJaZ3puQxOya-33" edge="1">
          <mxGeometry relative="1" as="geometry" />
        </mxCell>
        <mxCell id="1BMH84HQKJaZ3puQxOya-35" value="" style="edgeStyle=orthogonalEdgeStyle;rounded=0;orthogonalLoop=1;jettySize=auto;html=1;" parent="1" source="1BMH84HQKJaZ3puQxOya-39" target="1BMH84HQKJaZ3puQxOya-52" edge="1">
          <mxGeometry relative="1" as="geometry" />
        </mxCell>
        <mxCell id="1BMH84HQKJaZ3puQxOya-36" value="" style="edgeStyle=orthogonalEdgeStyle;rounded=0;orthogonalLoop=1;jettySize=auto;html=1;" parent="1" source="1BMH84HQKJaZ3puQxOya-39" target="1BMH84HQKJaZ3puQxOya-53" edge="1">
          <mxGeometry relative="1" as="geometry" />
        </mxCell>
        <mxCell id="1BMH84HQKJaZ3puQxOya-37" value="" style="edgeStyle=orthogonalEdgeStyle;rounded=0;orthogonalLoop=1;jettySize=auto;html=1;" parent="1" source="1BMH84HQKJaZ3puQxOya-39" target="1BMH84HQKJaZ3puQxOya-53" edge="1">
          <mxGeometry relative="1" as="geometry" />
        </mxCell>
        <mxCell id="1BMH84HQKJaZ3puQxOya-38" value="基类直接" style="edgeLabel;html=1;align=center;verticalAlign=middle;resizable=0;points=[];" parent="1BMH84HQKJaZ3puQxOya-37" vertex="1" connectable="0">
          <mxGeometry x="-0.5332" relative="1" as="geometry">
            <mxPoint as="offset" />
          </mxGeometry>
        </mxCell>
        <mxCell id="1BMH84HQKJaZ3puQxOya-39" value="void ImgFileSaveStrategy::finishedSaveImg(bool success)&lt;br&gt;&amp;nbsp;里面emit saveImgfinishSignal(savingImgInfo);&lt;br&gt;有三处地方调用finishedSaveImg" style="whiteSpace=wrap;html=1;" parent="1" vertex="1">
          <mxGeometry x="1300" y="1570" width="730" height="60" as="geometry" />
        </mxCell>
        <mxCell id="1BMH84HQKJaZ3puQxOya-40" style="edgeStyle=orthogonalEdgeStyle;rounded=0;orthogonalLoop=1;jettySize=auto;html=1;" parent="1" source="1BMH84HQKJaZ3puQxOya-42" target="1BMH84HQKJaZ3puQxOya-52" edge="1">
          <mxGeometry relative="1" as="geometry" />
        </mxCell>
        <mxCell id="1BMH84HQKJaZ3puQxOya-41" style="edgeStyle=orthogonalEdgeStyle;rounded=0;orthogonalLoop=1;jettySize=auto;html=1;entryX=0.5;entryY=1;entryDx=0;entryDy=0;" parent="1" source="1BMH84HQKJaZ3puQxOya-42" target="1BMH84HQKJaZ3puQxOya-54" edge="1">
          <mxGeometry relative="1" as="geometry" />
        </mxCell>
        <mxCell id="1BMH84HQKJaZ3puQxOya-42" value="&lt;div&gt;&lt;b&gt;类：ProsCineSaveToLocal::ProsCineSaveToLocal&lt;/b&gt;&amp;nbsp; &amp;nbsp;&amp;nbsp;&lt;br&gt;connect(file_tool, &amp;amp;CineFileTool::savingSuccess, this, &amp;amp;ProsCineSaveToLocal::imgSaveSucceeded);&lt;/div&gt;&lt;div&gt;&amp;nbsp; &amp;nbsp; connect(file_tool, &amp;amp;CineFileTool::savingFaild, this, &amp;amp;ProsCineSaveToLocal::imgSaveFailed);&lt;/div&gt;" style="whiteSpace=wrap;html=1;" parent="1" vertex="1">
          <mxGeometry x="1045" y="1840" width="560" height="60" as="geometry" />
        </mxCell>
        <mxCell id="1BMH84HQKJaZ3puQxOya-43" style="edgeStyle=orthogonalEdgeStyle;rounded=0;orthogonalLoop=1;jettySize=auto;html=1;" parent="1" source="1BMH84HQKJaZ3puQxOya-44" target="1BMH84HQKJaZ3puQxOya-42" edge="1">
          <mxGeometry relative="1" as="geometry" />
        </mxCell>
        <mxCell id="1BMH84HQKJaZ3puQxOya-44" value="&lt;div&gt;&lt;b&gt;类：CineFileTool::CineFileTool&lt;/b&gt;&lt;br&gt;bool suc = (bool)connect(postCineFileSaverManager, SIGNAL(savingSuccess(QString, quint32)),&lt;/div&gt;&lt;div&gt;&amp;nbsp; &amp;nbsp; &amp;nbsp; &amp;nbsp; this, SLOT(postSaveSuccess(QString, quint32)));&lt;/div&gt;&lt;div&gt;&amp;nbsp; &amp;nbsp; suc &amp;amp;= (bool)connect(postCineFileSaverManager, SIGNAL(savingFaild(const QString&amp;amp;, const QString&amp;amp;)),&lt;/div&gt;&lt;div&gt;&amp;nbsp; &amp;nbsp; &amp;nbsp; &amp;nbsp; this, SIGNAL(savingFaild(const QString&amp;amp;, const QString&amp;amp;)));&lt;/div&gt;" style="whiteSpace=wrap;html=1;" parent="1" vertex="1">
          <mxGeometry x="1030" y="1950" width="590" height="90" as="geometry" />
        </mxCell>
        <mxCell id="1BMH84HQKJaZ3puQxOya-45" style="edgeStyle=orthogonalEdgeStyle;rounded=0;orthogonalLoop=1;jettySize=auto;html=1;entryX=0.5;entryY=1;entryDx=0;entryDy=0;" parent="1" source="1BMH84HQKJaZ3puQxOya-46" target="1BMH84HQKJaZ3puQxOya-44" edge="1">
          <mxGeometry relative="1" as="geometry" />
        </mxCell>
        <mxCell id="1BMH84HQKJaZ3puQxOya-46" value="&lt;div&gt;&lt;b&gt;类：PostCineFileSaverManager::createPostSaver()&lt;/b&gt;&amp;nbsp; &amp;nbsp;&amp;nbsp;&lt;br&gt;suc &amp;amp;= (bool)connect(postCineFileSaver, &amp;amp;PostCineFileSaver::savingSuccess, this, &amp;amp;PostCineFileSaverManager::savingSuccess);&lt;/div&gt;&lt;div&gt;&amp;nbsp; &amp;nbsp; suc &amp;amp;= (bool)connect(postCineFileSaver, &amp;amp;PostCineFileSaver::savingFaild, this, &amp;amp;PostCineFileSaverManager::savingFaild);&lt;/div&gt;" style="whiteSpace=wrap;html=1;" parent="1" vertex="1">
          <mxGeometry x="1030" y="2080" width="590" height="90" as="geometry" />
        </mxCell>
        <mxCell id="1BMH84HQKJaZ3puQxOya-47" value="&lt;b&gt;类：PostCineFileSaver&lt;/b&gt;&lt;br&gt;emit(savingFaild(file_name, tr(&quot;You can&#39;t record cine in MPW mode&quot;)));&lt;br&gt;&amp;nbsp;emit(savingFaild(file_name, tr(&quot;You can&#39;t record cine on frozen&quot;)));&lt;br&gt;emit(savingFaild(file_name, m_pFileWriter-&amp;gt;getErrorStr()));&lt;br&gt;emit(savingSuccess(mFilepath, getNowSaveTimeLengthMs() * 100));" style="whiteSpace=wrap;html=1;" parent="1" vertex="1">
          <mxGeometry x="1030" y="2200" width="520" height="90" as="geometry" />
        </mxCell>
        <mxCell id="1BMH84HQKJaZ3puQxOya-48" value="&lt;div&gt;DataCollectToolInterfaceProxy::DataCollectToolInterfaceProxy()&lt;/div&gt;&lt;div&gt;{&lt;/div&gt;&lt;div&gt;&amp;nbsp; &amp;nbsp; PatientManager* pat_mng = GlobalObjects::getObject&amp;lt;PatientManager*&amp;gt;(OBJID::ARCH::PATIENTMNG);&lt;/div&gt;&lt;div&gt;&lt;span style=&quot;white-space: normal;&quot;&gt;&lt;span style=&quot;white-space:pre&quot;&gt;&#x9;&lt;/span&gt;patConnect = connect(pat_mng, &amp;amp;&lt;font style=&quot;color: rgb(255, 0, 0);&quot;&gt;PatientManager::saveImgfinishSignal&lt;/font&gt;, this, [this](ImageInfo info) {&lt;/span&gt;&lt;/div&gt;&lt;div&gt;&lt;span style=&quot;white-space: normal;&quot;&gt;&lt;span style=&quot;white-space:pre&quot;&gt;&#x9;&#x9;&lt;/span&gt;if (PatientInfoProvider::isClipsFile(info.type)) {&lt;/span&gt;&lt;/div&gt;&lt;div&gt;&lt;span style=&quot;white-space: normal;&quot;&gt;&lt;span style=&quot;white-space:pre&quot;&gt;&#x9;&#x9;&#x9;&lt;/span&gt;&lt;font style=&quot;color: rgb(255, 0, 0);&quot;&gt;emit savedVideo(info.seriesId, info.uid);&lt;/font&gt;&lt;/span&gt;&lt;/div&gt;&lt;div&gt;&lt;span style=&quot;white-space: normal;&quot;&gt;&lt;span style=&quot;white-space:pre&quot;&gt;&#x9;&#x9;&lt;/span&gt;}&lt;/span&gt;&lt;/div&gt;&lt;div&gt;&lt;span style=&quot;white-space: normal;&quot;&gt;&lt;span style=&quot;white-space:pre&quot;&gt;&#x9;&#x9;&lt;/span&gt;else {&lt;/span&gt;&lt;/div&gt;&lt;div&gt;&lt;span style=&quot;white-space: normal;&quot;&gt;&lt;span style=&quot;white-space:pre&quot;&gt;&#x9;&#x9;&#x9;&lt;/span&gt;QString full_name = PatientInfoProvider::getImageThumbnail(info);&lt;/span&gt;&lt;/div&gt;&lt;div&gt;&lt;span style=&quot;white-space: normal;&quot;&gt;&lt;span style=&quot;white-space:pre&quot;&gt;&#x9;&#x9;&#x9;&lt;/span&gt;emit savedImage(info.seriesId, info.uid, full_name);&lt;/span&gt;&lt;/div&gt;&lt;div&gt;&lt;span style=&quot;white-space: normal;&quot;&gt;&lt;span style=&quot;white-space:pre&quot;&gt;&#x9;&#x9;&lt;/span&gt;}&lt;/span&gt;&lt;/div&gt;&lt;div&gt;&lt;span style=&quot;white-space: normal;&quot;&gt;&lt;span style=&quot;white-space:pre&quot;&gt;&#x9;&lt;/span&gt;});&lt;/span&gt;&lt;/div&gt;&lt;div&gt;&lt;br&gt;&lt;/div&gt;&lt;div&gt;&amp;nbsp; &amp;nbsp; MeasureManagerProxy* meas_mng = GlobalObjects::getObject&amp;lt;MeasureManagerProxy*&amp;gt;(OBJID::ARCH::MEASURE_MANAGER_PROXY);&lt;/div&gt;&lt;div&gt;&lt;span style=&quot;white-space: normal;&quot;&gt;&lt;span style=&quot;white-space:pre&quot;&gt;&#x9;&lt;/span&gt;observer = new DataCollectToolObserver(this);&lt;/span&gt;&lt;/div&gt;&lt;div&gt;&lt;span style=&quot;white-space: normal;&quot;&gt;&lt;span style=&quot;white-space:pre&quot;&gt;&#x9;&lt;/span&gt;meas_mng-&amp;gt;getMeasureSystem()-&amp;gt;addObserver(observer);&lt;/span&gt;&lt;/div&gt;&lt;div&gt;}&lt;/div&gt;" style="whiteSpace=wrap;html=1;align=left;" parent="1" vertex="1">
          <mxGeometry x="1300" y="1130" width="730" height="290" as="geometry" />
        </mxCell>
        <mxCell id="1BMH84HQKJaZ3puQxOya-49" value="&lt;div&gt;&lt;div style=&quot;text-align: center;&quot;&gt;&lt;span style=&quot;background-color: transparent; color: light-dark(rgb(0, 0, 0), rgb(255, 255, 255));&quot;&gt;&lt;b&gt;类UltraDataCollectTool::init()&lt;/b&gt;&lt;/span&gt;&lt;/div&gt;&amp;nbsp; &amp;nbsp; suc &amp;amp;= (bool)connect(interface, &amp;amp;&lt;font style=&quot;color: rgb(255, 0, 0);&quot;&gt;&lt;b&gt;DataCollectToolInterface::savedVideo&lt;/b&gt;,&lt;/font&gt; this, [this, interface](QString series_id, QString img_id) {&lt;/div&gt;&lt;div&gt;&amp;nbsp; &amp;nbsp; &amp;nbsp; &amp;nbsp; if (isRuning() &amp;amp;&amp;amp; currentHandler &amp;amp;&amp;amp; currentHandler-&amp;gt;needVideo()) {&lt;/div&gt;&lt;div&gt;&amp;nbsp; &amp;nbsp; &amp;nbsp; &amp;nbsp; &amp;nbsp; &amp;nbsp; //多个 UltraDataCollectTool 情况，理论上同一个电影只需要转一次，这部分由registerVideoTask考虑&lt;/div&gt;&lt;div&gt;&amp;nbsp; &amp;nbsp; &amp;nbsp; &amp;nbsp; &amp;nbsp; &amp;nbsp; QString file_name = series_id + &quot;_&quot; + img_id + &quot;.mp4&quot;;&lt;/div&gt;&lt;div&gt;&amp;nbsp; &amp;nbsp; &amp;nbsp; &amp;nbsp; &amp;nbsp; &amp;nbsp; &lt;span style=&quot;background-color: light-dark(#ffffff, var(--ge-dark-color, #121212));&quot;&gt;&lt;font style=&quot;color: rgb(255, 0, 0);&quot;&gt;currentHandler-&amp;gt;onCollectVideoBegin&lt;/font&gt;&lt;/span&gt;(series_id, img_id);&lt;/div&gt;&lt;div&gt;&amp;nbsp; &amp;nbsp; &amp;nbsp; &amp;nbsp; &amp;nbsp; &amp;nbsp; interface-&amp;gt;registerVideoTask(series_id, img_id, temporaryPath + &quot;/&quot; + file_name);&lt;/div&gt;&lt;div&gt;&amp;nbsp; &amp;nbsp; &amp;nbsp; &amp;nbsp; }&lt;/div&gt;&lt;div&gt;&amp;nbsp; &amp;nbsp; });&lt;/div&gt;" style="whiteSpace=wrap;html=1;align=left;" parent="1" vertex="1">
          <mxGeometry x="1300" y="895" width="830" height="150" as="geometry" />
        </mxCell>
        <mxCell id="1BMH84HQKJaZ3puQxOya-50" style="edgeStyle=orthogonalEdgeStyle;rounded=0;orthogonalLoop=1;jettySize=auto;html=1;entryX=0.441;entryY=0.981;entryDx=0;entryDy=0;entryPerimeter=0;" parent="1" source="1BMH84HQKJaZ3puQxOya-47" target="1BMH84HQKJaZ3puQxOya-46" edge="1">
          <mxGeometry relative="1" as="geometry" />
        </mxCell>
        <mxCell id="1BMH84HQKJaZ3puQxOya-51" style="edgeStyle=orthogonalEdgeStyle;rounded=0;orthogonalLoop=1;jettySize=auto;html=1;entryX=0.439;entryY=0.983;entryDx=0;entryDy=0;entryPerimeter=0;" parent="1" source="1BMH84HQKJaZ3puQxOya-48" target="1BMH84HQKJaZ3puQxOya-49" edge="1">
          <mxGeometry relative="1" as="geometry" />
        </mxCell>
        <mxCell id="1BMH84HQKJaZ3puQxOya-52" value="void ProsCineSaveToLocal::imgSaveSucceeded()" style="whiteSpace=wrap;html=1;" parent="1" vertex="1">
          <mxGeometry x="1170" y="1740" width="310" height="60" as="geometry" />
        </mxCell>
        <mxCell id="1BMH84HQKJaZ3puQxOya-53" value="bool ImgFileSaveStrategy::save()" style="whiteSpace=wrap;html=1;" parent="1" vertex="1">
          <mxGeometry x="2070" y="1740" width="235" height="60" as="geometry" />
        </mxCell>
        <mxCell id="1BMH84HQKJaZ3puQxOya-54" value="void ProsCineSaveToLocal::imgSaveFailed(const QString&amp;amp; file_name, const QString&amp;amp; error_str)" style="whiteSpace=wrap;html=1;" parent="1" vertex="1">
          <mxGeometry x="1509" y="1740" width="530" height="60" as="geometry" />
        </mxCell>
        <mxCell id="1BMH84HQKJaZ3puQxOya-55" style="edgeStyle=orthogonalEdgeStyle;rounded=0;orthogonalLoop=1;jettySize=auto;html=1;entryX=0.543;entryY=0.033;entryDx=0;entryDy=0;entryPerimeter=0;" parent="1" source="1BMH84HQKJaZ3puQxOya-39" target="1BMH84HQKJaZ3puQxOya-54" edge="1">
          <mxGeometry relative="1" as="geometry" />
        </mxCell>
        <mxCell id="1BMH84HQKJaZ3puQxOya-56" value="子类的" style="edgeLabel;html=1;align=center;verticalAlign=middle;resizable=0;points=[];" parent="1BMH84HQKJaZ3puQxOya-55" vertex="1" connectable="0">
          <mxGeometry x="-0.7996" y="1" relative="1" as="geometry">
            <mxPoint as="offset" />
          </mxGeometry>
        </mxCell>
        <mxCell id="1BMH84HQKJaZ3puQxOya-57" style="edgeStyle=orthogonalEdgeStyle;rounded=0;orthogonalLoop=1;jettySize=auto;html=1;entryX=0.5;entryY=1;entryDx=0;entryDy=0;" parent="1" source="1BMH84HQKJaZ3puQxOya-58" target="1BMH84HQKJaZ3puQxOya-47" edge="1">
          <mxGeometry relative="1" as="geometry" />
        </mxCell>
        <mxCell id="1BMH84HQKJaZ3puQxOya-58" value="&lt;div&gt;&lt;b&gt;类：PostCineFileSaver&lt;/b&gt;&lt;br&gt;&amp;nbsp; &amp;nbsp; &amp;nbsp; &amp;nbsp; BoolParameter* p_para = Parameter::globalByName&amp;lt;BoolParameter*&amp;gt;(PARAID::APP::FREEZE);&lt;/div&gt;&lt;div&gt;&amp;nbsp; &amp;nbsp; &amp;nbsp; &amp;nbsp; bool suc = connect(p_para, SIGNAL(valueChanged(bool)), this, SLOT(stopSaving()));&lt;/div&gt;&lt;div&gt;&lt;br&gt;&lt;/div&gt;&lt;div&gt;&amp;nbsp; &amp;nbsp; &amp;nbsp; &amp;nbsp; EnumParameter* p_active_engine_id_para = Parameter::globalByName&amp;lt;EnumParameter*&amp;gt;(PARAID::APP::ACTIVEENGINEID);&lt;/div&gt;&lt;div&gt;&amp;nbsp; &amp;nbsp; &amp;nbsp; &amp;nbsp; suc &amp;amp;= (bool)connect(p_active_engine_id_para, SIGNAL(valueChanged(int, QString)), this, SLOT(stopSaving()));&lt;/div&gt;&lt;div&gt;&lt;br&gt;&lt;/div&gt;&lt;div&gt;&amp;nbsp; &amp;nbsp; &amp;nbsp; &amp;nbsp; EnumParameter* p_engine_num_para = Parameter::globalByName&amp;lt;EnumParameter*&amp;gt;(PARAID::APP::ENGINENUM);&lt;/div&gt;&lt;div&gt;&amp;nbsp; &amp;nbsp; &amp;nbsp; &amp;nbsp; suc &amp;amp;= (bool)connect(p_engine_num_para, SIGNAL(valueChanged(int, QString)), this, SLOT(stopSaving()));&lt;br&gt;&lt;br&gt;suc &amp;amp;= (bool)connect(pre_processor, SIGNAL(cinePartCleared(int)), this, SLOT(stopSaving()), Qt::QueuedConnection);&lt;br&gt;&lt;br&gt;&lt;b&gt;syncInvokeMethod(&quot;startSaving&quot;);&lt;br&gt;syncInvokeMethod(&quot;stopSaving&quot;);&lt;/b&gt;&lt;/div&gt;" style="whiteSpace=wrap;html=1;" parent="1" vertex="1">
          <mxGeometry x="925" y="2340" width="730" height="220" as="geometry" />
        </mxCell>
        <mxCell id="1BMH84HQKJaZ3puQxOya-59" style="edgeStyle=orthogonalEdgeStyle;rounded=0;orthogonalLoop=1;jettySize=auto;html=1;entryX=0;entryY=0.5;entryDx=0;entryDy=0;" parent="1" source="1BMH84HQKJaZ3puQxOya-60" target="1BMH84HQKJaZ3puQxOya-62" edge="1">
          <mxGeometry relative="1" as="geometry" />
        </mxCell>
        <mxCell id="1BMH84HQKJaZ3puQxOya-60" value="void PatientManager::saveImg(int func_id, QWidget* widget)" style="whiteSpace=wrap;html=1;" parent="1" vertex="1">
          <mxGeometry x="550" y="2670" width="370" height="60" as="geometry" />
        </mxCell>
        <mxCell id="1BMH84HQKJaZ3puQxOya-61" style="edgeStyle=orthogonalEdgeStyle;rounded=0;orthogonalLoop=1;jettySize=auto;html=1;" parent="1" source="1BMH84HQKJaZ3puQxOya-62" target="1BMH84HQKJaZ3puQxOya-64" edge="1">
          <mxGeometry relative="1" as="geometry" />
        </mxCell>
        <mxCell id="1BMH84HQKJaZ3puQxOya-62" value="bool ProsCineSaveToLocal::handleSaveingEvent(int save_func_id)" style="whiteSpace=wrap;html=1;" parent="1" vertex="1">
          <mxGeometry x="980" y="2670" width="370" height="60" as="geometry" />
        </mxCell>
        <mxCell id="1BMH84HQKJaZ3puQxOya-63" style="edgeStyle=orthogonalEdgeStyle;rounded=0;orthogonalLoop=1;jettySize=auto;html=1;entryX=0;entryY=0.5;entryDx=0;entryDy=0;" parent="1" source="1BMH84HQKJaZ3puQxOya-64" target="1BMH84HQKJaZ3puQxOya-66" edge="1">
          <mxGeometry relative="1" as="geometry" />
        </mxCell>
        <mxCell id="1BMH84HQKJaZ3puQxOya-64" value="void CineFileTool::stopPostSaving()" style="whiteSpace=wrap;html=1;" parent="1" vertex="1">
          <mxGeometry x="1380" y="2670" width="210" height="60" as="geometry" />
        </mxCell>
        <mxCell id="1BMH84HQKJaZ3puQxOya-65" value="" style="edgeStyle=orthogonalEdgeStyle;rounded=0;orthogonalLoop=1;jettySize=auto;html=1;" parent="1" source="1BMH84HQKJaZ3puQxOya-66" target="1BMH84HQKJaZ3puQxOya-68" edge="1">
          <mxGeometry relative="1" as="geometry" />
        </mxCell>
        <mxCell id="1BMH84HQKJaZ3puQxOya-66" value="void PostCineFileSaver::blockingStop()" style="whiteSpace=wrap;html=1;" parent="1" vertex="1">
          <mxGeometry x="1630" y="2670" width="250" height="60" as="geometry" />
        </mxCell>
        <mxCell id="1BMH84HQKJaZ3puQxOya-67" style="edgeStyle=orthogonalEdgeStyle;rounded=0;orthogonalLoop=1;jettySize=auto;html=1;" parent="1" source="1BMH84HQKJaZ3puQxOya-68" target="1BMH84HQKJaZ3puQxOya-58" edge="1">
          <mxGeometry relative="1" as="geometry">
            <mxPoint x="1990" y="2430" as="targetPoint" />
            <Array as="points">
              <mxPoint x="2040" y="2470" />
            </Array>
          </mxGeometry>
        </mxCell>
        <mxCell id="1BMH84HQKJaZ3puQxOya-68" value="&lt;b&gt;&amp;nbsp;syncInvokeMethod(&quot;stopSaving&quot;);&lt;/b&gt;" style="whiteSpace=wrap;html=1;" parent="1" vertex="1">
          <mxGeometry x="1920" y="2670" width="240" height="60" as="geometry" />
        </mxCell>
        <mxCell id="1BMH84HQKJaZ3puQxOya-69" value="suc &amp;amp;= (bool)connect(p_pre_processor, SIGNAL(cinePartCleared(int)), CineFileTool::instance(), SLOT(onPartitionClear(int)));" style="whiteSpace=wrap;html=1;" parent="1" vertex="1">
          <mxGeometry x="1045" y="2790" width="700" height="60" as="geometry" />
        </mxCell>
        <mxCell id="1BMH84HQKJaZ3puQxOya-70" style="edgeStyle=orthogonalEdgeStyle;rounded=0;orthogonalLoop=1;jettySize=auto;html=1;entryX=0.5;entryY=1;entryDx=0;entryDy=0;exitX=1;exitY=0.5;exitDx=0;exitDy=0;" parent="1" source="1BMH84HQKJaZ3puQxOya-71" target="1BMH84HQKJaZ3puQxOya-68" edge="1">
          <mxGeometry relative="1" as="geometry" />
        </mxCell>
        <mxCell id="1BMH84HQKJaZ3puQxOya-71" value="void PostCineFileSaverManager::stopPostSaving()" style="whiteSpace=wrap;html=1;" parent="1" vertex="1">
          <mxGeometry x="1655" y="2900" width="290" height="60" as="geometry" />
        </mxCell>
        <mxCell id="1BMH84HQKJaZ3puQxOya-72" value="" style="endArrow=classic;html=1;rounded=0;entryX=0.614;entryY=0.024;entryDx=0;entryDy=0;entryPerimeter=0;exitX=1;exitY=0.5;exitDx=0;exitDy=0;" parent="1" source="1BMH84HQKJaZ3puQxOya-69" target="1BMH84HQKJaZ3puQxOya-71" edge="1">
          <mxGeometry width="50" height="50" relative="1" as="geometry">
            <mxPoint x="1790" y="2830" as="sourcePoint" />
            <mxPoint x="1840" y="2780" as="targetPoint" />
          </mxGeometry>
        </mxCell>
        <mxCell id="1BMH84HQKJaZ3puQxOya-73" value="void ImagePreProcessor::clearCinePartition(bool exhaustive)" style="whiteSpace=wrap;html=1;" parent="1" vertex="1">
          <mxGeometry x="1059" y="2900" width="370" height="60" as="geometry" />
        </mxCell>
        <mxCell id="1BMH84HQKJaZ3puQxOya-74" value="" style="endArrow=classic;html=1;rounded=0;entryX=0.365;entryY=1.01;entryDx=0;entryDy=0;entryPerimeter=0;exitX=0.444;exitY=-0.024;exitDx=0;exitDy=0;exitPerimeter=0;" parent="1" source="1BMH84HQKJaZ3puQxOya-73" target="1BMH84HQKJaZ3puQxOya-69" edge="1">
          <mxGeometry width="50" height="50" relative="1" as="geometry">
            <mxPoint x="1230" y="2900" as="sourcePoint" />
            <mxPoint x="1280" y="2850" as="targetPoint" />
          </mxGeometry>
        </mxCell>
        <mxCell id="1BMH84HQKJaZ3puQxOya-75" style="edgeStyle=orthogonalEdgeStyle;rounded=0;orthogonalLoop=1;jettySize=auto;html=1;entryX=0;entryY=0.5;entryDx=0;entryDy=0;" parent="1" source="1BMH84HQKJaZ3puQxOya-76" target="1BMH84HQKJaZ3puQxOya-73" edge="1">
          <mxGeometry relative="1" as="geometry" />
        </mxCell>
        <mxCell id="1BMH84HQKJaZ3puQxOya-76" value="void ImagePreProcessor::processCinePart()" style="whiteSpace=wrap;html=1;" parent="1" vertex="1">
          <mxGeometry x="730" y="2900" width="250" height="60" as="geometry" />
        </mxCell>
        <mxCell id="1BMH84HQKJaZ3puQxOya-77" value="" style="edgeStyle=orthogonalEdgeStyle;rounded=0;orthogonalLoop=1;jettySize=auto;html=1;" parent="1" source="1BMH84HQKJaZ3puQxOya-78" target="1BMH84HQKJaZ3puQxOya-76" edge="1">
          <mxGeometry relative="1" as="geometry" />
        </mxCell>
        <mxCell id="1BMH84HQKJaZ3puQxOya-78" value="*******" style="rounded=1;whiteSpace=wrap;html=1;" parent="1" vertex="1">
          <mxGeometry x="560" y="2900" width="120" height="60" as="geometry" />
        </mxCell>
      </root>
    </mxGraphModel>
  </diagram>
</mxfile>
